<?xml version="1.0" encoding="utf-8"?>
<!-- Generator: Adobe Illustrator 25.4.1, SVG Export Plug-In . SVG Version: 6.00 Build 0)  -->
<svg version="1.1" id="Слой_1" xmlns="http://www.w3.org/2000/svg" xmlns:xlink="http://www.w3.org/1999/xlink" x="0px" y="0px"
	 viewBox="0 0 200 200" style="enable-background:new 0 0 200 200;" xml:space="preserve">
<style type="text/css">
	.st0{fill:#111111;}
	.st1{fill:#EAD900;}
	.st2{fill:#EAEAEA;}
</style>
<g>
	<path class="st0" d="M100,199.17c-13.39,0-26.37-2.62-38.6-7.79c-11.81-4.99-22.41-12.15-31.52-21.25
		c-9.11-9.11-16.26-19.71-21.25-31.52c-5.17-12.23-7.79-25.21-7.79-38.6s2.62-26.37,7.79-38.6c4.99-11.81,12.15-22.41,21.25-31.52
		c9.11-9.11,19.71-16.26,31.52-21.25C73.63,3.46,86.61,0.83,100,0.83s26.37,2.62,38.6,7.79c11.81,4.99,22.41,12.15,31.52,21.25
		c9.11,9.11,16.26,19.71,21.25,31.52c5.17,12.23,7.79,25.21,7.79,38.6s-2.62,26.37-7.79,38.6c-4.99,11.81-12.15,22.41-21.25,31.52
		c-9.11,9.11-19.71,16.26-31.52,21.25C126.37,196.54,113.39,199.17,100,199.17z"/>
	<path class="st1" d="M100,1.67c13.28,0,26.15,2.6,38.28,7.73c5.83,2.46,11.45,5.51,16.7,9.07c5.21,3.52,10.1,7.56,14.55,12.01
		c4.45,4.45,8.49,9.35,12.01,14.55c3.55,5.26,6.6,10.88,9.07,16.7c5.13,12.12,7.73,25,7.73,38.28c0,13.28-2.6,26.15-7.73,38.28
		c-2.46,5.83-5.51,11.45-9.07,16.7c-3.52,5.21-7.56,10.1-12.01,14.55c-4.45,4.45-9.35,8.49-14.55,12.01
		c-5.26,3.55-10.88,6.6-16.7,9.07c-12.12,5.13-25,7.73-38.28,7.73c-13.28,0-26.15-2.6-38.28-7.73c-5.83-2.46-11.45-5.51-16.7-9.07
		c-5.21-3.52-10.1-7.56-14.55-12.01c-4.45-4.45-8.49-9.35-12.01-14.55c-3.55-5.26-6.6-10.88-9.07-16.7
		c-5.13-12.12-7.73-25-7.73-38.28c0-13.28,2.6-26.15,7.73-38.28c2.46-5.83,5.51-11.45,9.07-16.7c3.52-5.21,7.56-10.1,12.01-14.55
		c4.45-4.45,9.35-8.49,14.55-12.01c5.26-3.55,10.88-6.6,16.7-9.07C73.85,4.27,86.72,1.67,100,1.67L100,1.67 M100,0L100,0
		C44.77,0,0,44.77,0,100v0c0,55.23,44.77,100,100,100h0c55.23,0,100-44.77,100-100v0C200,44.77,155.23,0,100,0L100,0z"/>
	<g>
		<g>
			<polygon class="st1" points="38.71,94.43 38.71,91.33 25.46,91.33 25.46,94.76 32.41,94.76 24.67,102.33 24.67,105.52 
				39.01,105.52 39.01,102.08 30.89,102.08 			"/>
			<path class="st1" d="M54.44,97.95c0.4-0.2,0.73-0.43,0.98-0.7c0.58-0.62,0.87-1.38,0.87-2.25c0-1.04-0.41-1.92-1.22-2.62
				c-0.8-0.69-1.94-1.04-3.4-1.04h-8.68v14.19h8.03c0.35,0,1.02-0.06,2.05-0.19c0.8-0.1,1.39-0.25,1.8-0.48
				c0.65-0.35,1.16-0.83,1.54-1.43c0.37-0.6,0.56-1.29,0.56-2.05c0-0.93-0.27-1.71-0.8-2.33C55.76,98.57,55.18,98.2,54.44,97.95z
				 M51.06,96.42c-0.16,0.13-0.51,0.28-1.31,0.28h-1.71v-2.1h1.74c0.77,0,1.12,0.15,1.28,0.28c0.22,0.18,0.32,0.42,0.32,0.74
				C51.38,95.98,51.27,96.24,51.06,96.42z M48.04,99.81h2.04c0.91,0,1.32,0.17,1.5,0.32c0.25,0.2,0.38,0.45,0.38,0.78
				c0,0.36-0.13,0.64-0.38,0.85c-0.27,0.22-0.77,0.33-1.48,0.33h-2.05V99.81z"/>
			<path class="st1" d="M65.02,91.33l-5.68,14.19h5.15l0.71-2.26h4.75l0.73,2.26h5.27l-5.68-14.19H65.02z M68.86,99.8h-2.51
				l1.25-3.86L68.86,99.8z"/>
			<polygon class="st1" points="92.68,98.2 90.65,91.33 86.01,91.33 83.99,98.21 82.61,91.33 77.81,91.33 81.17,105.52 
				85.97,105.52 88.33,97.53 90.7,105.52 95.51,105.52 98.84,91.33 94.06,91.33 			"/>
			<rect x="102.37" y="91.33" class="st1" width="5.02" height="14.19"/>
			<polygon class="st1" points="117.57,99.72 124.58,99.72 124.58,96.43 117.57,96.43 117.57,94.76 125.13,94.76 125.13,91.33 
				112.55,91.33 112.55,105.52 125.34,105.52 125.34,101.92 117.57,101.92 			"/>
			<polygon class="st1" points="139.44,98.39 134.33,91.33 129.75,91.33 129.75,105.52 134.48,105.52 134.48,98.53 139.57,105.52 
				144.19,105.52 144.19,91.33 139.44,91.33 			"/>
			<rect x="149.31" y="91.33" class="st1" width="5.02" height="14.19"/>
			<polygon class="st1" points="164.51,101.92 164.51,99.72 171.52,99.72 171.52,96.43 164.51,96.43 164.51,94.76 172.07,94.76 
				172.07,91.33 159.49,91.33 159.49,105.52 172.28,105.52 172.28,101.92 			"/>
		</g>
		<g>
			<path class="st2" d="M73.45,134.47h0.06l4.38-3.87h1.7l-4.71,3.98l3.92,4.6h-1.61l-3.72-4.51h-0.06l-0.77,4.51H71.4l2.44-13.86
				h1.23L73.45,134.47z"/>
			<path class="st2" d="M84.07,139.4c-0.57,0-1.11-0.09-1.6-0.28c-0.49-0.18-0.91-0.44-1.26-0.76c-0.35-0.32-0.62-0.72-0.82-1.17
				c-0.2-0.46-0.29-0.96-0.29-1.51c0-0.72,0.13-1.4,0.38-2.04c0.25-0.64,0.6-1.2,1.05-1.69c0.45-0.48,0.99-0.86,1.61-1.15
				c0.62-0.28,1.31-0.42,2.05-0.42c0.59,0,1.12,0.09,1.6,0.27c0.48,0.18,0.9,0.43,1.25,0.76c0.35,0.33,0.62,0.72,0.82,1.17
				c0.2,0.45,0.29,0.95,0.29,1.5c0,0.73-0.13,1.42-0.38,2.07c-0.25,0.65-0.6,1.21-1.05,1.69c-0.45,0.48-0.99,0.86-1.61,1.14
				C85.5,139.26,84.81,139.4,84.07,139.4z M87.88,134.16c0-0.39-0.06-0.76-0.18-1.09c-0.12-0.34-0.3-0.63-0.54-0.87
				c-0.24-0.25-0.53-0.44-0.87-0.58c-0.34-0.14-0.73-0.21-1.15-0.21c-0.54,0-1.03,0.11-1.48,0.34c-0.45,0.23-0.84,0.53-1.17,0.92
				c-0.33,0.39-0.59,0.83-0.78,1.34c-0.19,0.51-0.28,1.04-0.28,1.61c0,0.39,0.06,0.76,0.18,1.09c0.12,0.34,0.3,0.63,0.54,0.87
				c0.24,0.25,0.52,0.44,0.86,0.58c0.34,0.14,0.72,0.21,1.14,0.21c0.55,0,1.05-0.11,1.51-0.34c0.46-0.23,0.85-0.53,1.18-0.91
				c0.33-0.38,0.58-0.82,0.77-1.33C87.79,135.28,87.88,134.74,87.88,134.16z"/>
			<path class="st2" d="M97.09,132.49c-0.17-0.32-0.43-0.58-0.77-0.78c-0.34-0.2-0.75-0.3-1.23-0.3c-0.22,0-0.45,0.02-0.69,0.07
				c-0.24,0.05-0.46,0.13-0.66,0.24c-0.2,0.11-0.37,0.25-0.5,0.43c-0.13,0.18-0.19,0.39-0.19,0.65c0,0.23,0.04,0.42,0.12,0.57
				c0.08,0.15,0.19,0.27,0.34,0.38c0.15,0.1,0.32,0.2,0.53,0.28c0.21,0.08,0.45,0.16,0.72,0.23c0.84,0.24,1.49,0.55,1.92,0.93
				c0.44,0.37,0.66,0.9,0.66,1.59c0,0.46-0.1,0.86-0.31,1.2c-0.21,0.34-0.47,0.61-0.79,0.83c-0.32,0.21-0.67,0.37-1.06,0.47
				c-0.39,0.1-0.78,0.15-1.15,0.15c-0.72,0-1.4-0.13-2.03-0.4c-0.63-0.26-1.12-0.67-1.48-1.22l1.06-0.7
				c0.21,0.35,0.52,0.66,0.93,0.91c0.42,0.25,0.9,0.38,1.45,0.38c0.27,0,0.53-0.03,0.79-0.08s0.49-0.14,0.69-0.26
				c0.2-0.12,0.36-0.27,0.49-0.46c0.12-0.19,0.18-0.41,0.18-0.67c0-0.45-0.18-0.8-0.54-1.04c-0.36-0.24-0.88-0.47-1.55-0.69
				c-0.26-0.09-0.51-0.18-0.77-0.29c-0.26-0.11-0.49-0.25-0.7-0.43c-0.21-0.18-0.38-0.39-0.5-0.64c-0.13-0.25-0.19-0.55-0.19-0.91
				c0-0.44,0.1-0.82,0.3-1.14s0.46-0.58,0.77-0.78c0.31-0.2,0.66-0.35,1.05-0.45c0.39-0.1,0.78-0.15,1.17-0.15
				c0.66,0,1.25,0.13,1.77,0.38c0.52,0.26,0.9,0.6,1.13,1.03L97.09,132.49z M95.58,128.84h-1.03l2.31-2.64h1.61L95.58,128.84z"/>
			<path class="st2" d="M106.75,132.54c-0.15-0.33-0.4-0.6-0.76-0.82c-0.36-0.21-0.77-0.32-1.24-0.32c-0.55,0-1.06,0.11-1.52,0.33
				c-0.46,0.22-0.86,0.52-1.2,0.91c-0.34,0.39-0.6,0.83-0.79,1.34c-0.19,0.51-0.28,1.05-0.28,1.63c0,0.39,0.06,0.76,0.18,1.09
				c0.12,0.34,0.3,0.63,0.54,0.87c0.24,0.25,0.53,0.44,0.87,0.58c0.34,0.14,0.73,0.21,1.17,0.21c0.55,0,1.03-0.1,1.45-0.31
				c0.42-0.21,0.78-0.48,1.08-0.81l0.79,0.68c-0.44,0.45-0.94,0.81-1.49,1.07c-0.55,0.26-1.19,0.4-1.93,0.4
				c-0.61,0-1.16-0.09-1.65-0.27c-0.49-0.18-0.91-0.43-1.26-0.75c-0.35-0.32-0.62-0.71-0.81-1.16c-0.19-0.45-0.28-0.95-0.28-1.5
				c0-0.73,0.12-1.42,0.37-2.07c0.25-0.65,0.6-1.21,1.05-1.7c0.45-0.48,0.99-0.86,1.63-1.15c0.64-0.28,1.34-0.42,2.11-0.42
				c0.64,0,1.23,0.12,1.79,0.35c0.56,0.23,0.97,0.6,1.26,1.1L106.75,132.54z"/>
			<path class="st2" d="M110.18,139.18h-1.23l1.52-8.58h1.23L110.18,139.18z M112.43,127.28c0,0.24-0.08,0.45-0.25,0.62
				c-0.17,0.17-0.37,0.26-0.61,0.26c-0.23,0-0.43-0.07-0.6-0.22c-0.16-0.15-0.25-0.35-0.25-0.6s0.09-0.47,0.27-0.64
				c0.18-0.17,0.38-0.26,0.61-0.26c0.23,0,0.43,0.08,0.59,0.23C112.35,126.82,112.43,127.02,112.43,127.28z"/>
			<path class="st2" d="M117.62,139.4c-0.57,0-1.11-0.09-1.6-0.28c-0.49-0.18-0.91-0.44-1.26-0.76c-0.35-0.32-0.62-0.72-0.82-1.17
				c-0.2-0.46-0.29-0.96-0.29-1.51c0-0.72,0.13-1.4,0.38-2.04c0.25-0.64,0.6-1.2,1.05-1.69c0.45-0.48,0.99-0.86,1.61-1.15
				c0.62-0.28,1.31-0.42,2.05-0.42c0.59,0,1.12,0.09,1.6,0.27c0.48,0.18,0.9,0.43,1.25,0.76c0.35,0.33,0.62,0.72,0.82,1.17
				c0.2,0.45,0.29,0.95,0.29,1.5c0,0.73-0.13,1.42-0.38,2.07c-0.25,0.65-0.6,1.21-1.05,1.69c-0.45,0.48-0.99,0.86-1.61,1.14
				C119.05,139.26,118.36,139.4,117.62,139.4z M121.43,134.16c0-0.39-0.06-0.76-0.18-1.09c-0.12-0.34-0.3-0.63-0.54-0.87
				c-0.24-0.25-0.53-0.44-0.87-0.58c-0.34-0.14-0.73-0.21-1.15-0.21c-0.54,0-1.03,0.11-1.48,0.34c-0.45,0.23-0.84,0.53-1.17,0.92
				c-0.33,0.39-0.59,0.83-0.78,1.34c-0.19,0.51-0.28,1.04-0.28,1.61c0,0.39,0.06,0.76,0.18,1.09c0.12,0.34,0.3,0.63,0.54,0.87
				c0.24,0.25,0.52,0.44,0.86,0.58c0.34,0.14,0.72,0.21,1.14,0.21c0.55,0,1.05-0.11,1.51-0.34c0.46-0.23,0.85-0.53,1.18-0.91
				c0.33-0.38,0.58-0.82,0.77-1.33C121.34,135.28,121.43,134.74,121.43,134.16z M119.23,128.84h-1.03l2.31-2.64h1.61L119.23,128.84z
				"/>
			<path class="st2" d="M127.54,130.78l1.76-1.54l-0.24,1.34l-1.76,1.52l-1.25,7.08h-1.21l1.06-6.07l-1.74,1.52l0.24-1.34l1.74-1.5
				l1.14-6.47h1.21L127.54,130.78z"/>
		</g>
	</g>
</g>
</svg>
