<svg aria-hidden="true" style="position:absolute;width:0;height:0;overflow:hidden" xmlns="http://www.w3.org/2000/svg"><defs><symbol id="icon-facebook" viewBox="0 0 32 32"><path style="fill:var(--color1)" d="M16 1.92C8.231 1.92 1.92 8.231 1.92 16c0 7.052 5.202 12.889 11.976 13.906l.735.111V18.922h-3.326v-2.253h3.326v-2.991c0-1.842.442-3.055 1.174-3.816s1.813-1.145 3.317-1.145c1.203 0 1.671.073 2.116.127v1.844h-1.566c-.889 0-1.618.496-1.996 1.156s-.496 1.449-.496 2.252v2.571h3.919l-.349 2.253h-3.57v11.114l.726-.099c6.871-.932 12.174-6.815 12.174-13.936 0-7.769-6.311-14.08-14.08-14.08zm0 1.28c7.077 0 12.8 5.723 12.8 12.8 0 6.227-4.457 11.348-10.34 12.501v-8.3h3.387l.744-4.813H18.46v-1.291c0-.664.122-1.259.326-1.616s.402-.512.886-.512h2.846V7.687l-.555-.075c-.384-.052-1.26-.174-2.841-.174-1.73 0-3.215.471-4.24 1.537s-1.531 2.654-1.531 4.704v1.711h-3.326v4.813h3.326v8.259C7.563 27.236 3.2 22.16 3.2 16.001c0-7.077 5.723-12.8 12.8-12.8z"/></symbol><symbol id="icon-instagram" viewBox="0 0 32 32"><path style="fill:var(--color1)" d="M10.4 2.667h11.2a7.733 7.733 0 0 1 7.733 7.733v11.2a7.733 7.733 0 0 1-7.733 7.733H10.4A7.733 7.733 0 0 1 2.667 21.6V10.4A7.733 7.733 0 0 1 10.4 2.667zm-.267 2.666a4.8 4.8 0 0 0-4.8 4.8v11.733a4.8 4.8 0 0 0 4.8 4.8h11.733a4.8 4.8 0 0 0 4.8-4.8V10.133a4.8 4.8 0 0 0-4.8-4.8H10.133zm12.867 2a1.667 1.667 0 1 1 0 3.333 1.667 1.667 0 0 1 0-3.333zm-7 2a6.667 6.667 0 1 1 0 13.334 6.667 6.667 0 0 1 0-13.334zM16 12a4 4 0 1 0 0 8 4 4 0 0 0 0-8z"/></symbol><symbol id="icon-youtube" viewBox="0 0 32 32"><path style="fill:var(--color1)" d="M16 5.333s-8.339 0-10.419.557a3.339 3.339 0 0 0-2.357 2.357C2.667 10.327 2.667 16 2.667 16s0 5.673.557 7.753a3.339 3.339 0 0 0 2.357 2.357c2.08.557 10.419.557 10.419.557s8.339 0 10.419-.557a3.34 3.34 0 0 0 2.357-2.357c.557-2.08.557-7.753.557-7.753s0-5.673-.557-7.753a3.34 3.34 0 0 0-2.357-2.357C24.339 5.333 16 5.333 16 5.333zM16 8c3.843 0 8.654.178 9.729.466.225.06.41.245.471.471.321 1.197.466 4.852.466 7.063s-.145 5.864-.466 7.063a.678.678 0 0 1-.471.471C24.656 23.822 19.843 24 16 24c-3.841 0-8.653-.178-9.729-.466a.678.678 0 0 1-.471-.471c-.321-1.197-.466-4.852-.466-7.063s.145-5.865.466-7.065a.675.675 0 0 1 .471-.469C7.344 8.178 12.157 8 16 8zm-2.667 3.38v9.24l8-4.62-8-4.62z"/></symbol></defs></svg>